PathFileType	4	(X/Y/Z)	C:\Users\Basilio\Documents\Thesis Gigler\squatting_fais\c3dfiles\076\SLS_front_pre2\markers_experimental.trc
DataRate	CameraRate	NumFrames	NumMarkers	Units	OrigDataRate	OrigDataStartFrame	OrigNumFrames
200.000000	200.000000	4	61	mm	200.000000	996	1595
Frame#	Time	FHD			LBHD			RBHD			C7			T10			CLAV			LSHO			LUUPA			LMUPA			LDUPA			LLEP			LMEP			LRAD			LUL			LRFIN			RSHO			RUPA1			RMUPA			RDUPA			RLEP			RMEP			RRAD			RUL			RUFIN			LASI			RASI			USACR			LSACR			RSACR			LTHI1			LTHI2			LTHI3			LTHI4			LLFC			LMFC			LTIB1			LTIB2			LTIB3			LTIB4			LLMAL			LMMAL			LHEE			LMT1			LMT2			LMT5			RTHI			RTHI2			RTHI3			RTHI4			RLFC			RMFC			RTIB1			RTIB2			RTIB3			RTIB4			RLMAL			RMMAL			RHEE			RMT1			RMT2			RMT5			
		X1	Y1	Z1	X2	Y2	Z2	X3	Y3	Z3	X4	Y4	Z4	X5	Y5	Z5	X6	Y6	Z6	X7	Y7	Z7	X8	Y8	Z8	X9	Y9	Z9	X10	Y10	Z10	X11	Y11	Z11	X12	Y12	Z12	X13	Y13	Z13	X14	Y14	Z14	X15	Y15	Z15	X16	Y16	Z16	X17	Y17	Z17	X18	Y18	Z18	X19	Y19	Z19	X20	Y20	Z20	X21	Y21	Z21	X22	Y22	Z22	X23	Y23	Z23	X24	Y24	Z24	X25	Y25	Z25	X26	Y26	Z26	X27	Y27	Z27	X28	Y28	Z28	X29	Y29	Z29	X30	Y30	Z30	X31	Y31	Z31	X32	Y32	Z32	X33	Y33	Z33	X34	Y34	Z34	X35	Y35	Z35	X36	Y36	Z36	X37	Y37	Z37	X38	Y38	Z38	X39	Y39	Z39	X40	Y40	Z40	X41	Y41	Z41	X42	Y42	Z42	X43	Y43	Z43	X44	Y44	Z44	X45	Y45	Z45	X46	Y46	Z46	X47	Y47	Z47	X48	Y48	Z48	X49	Y49	Z49	X50	Y50	Z50	X51	Y51	Z51	X52	Y52	Z52	X53	Y53	Z53	X54	Y54	Z54	X55	Y55	Z55	X56	Y56	Z56	X57	Y57	Z57	X58	Y58	Z58	X59	Y59	Z59	X60	Y60	Z60	X61	Y61	Z61	

997	4.98	-224.0947723388672	1346.305297851563	-1040.27197265625	-357.2850341796876	1273.4677734375	-1143.912841796875	-350.7970886230469	1277.643188476563	-991.9439086914065	-405.2419738769532	1166.55712890625	-1057.50537109375	-511.2578735351564	875.4350585937502	-1031.515014648438	-287.4993591308594	1077.07275390625	-1064.4111328125	-339.5520935058594	1116.856811523438	-1218.351318359375	-195.4796905517579	1084.888916015625	-1291.886352539063	-165.3921813964844	1104.910888671875	-1258.370239257813	-129.2681884765625	1085.896606445313	-1303.620971679688	-77.72601318359376	1072.672485351563	-1314.9326171875	-64.81079101562501	1013.205200195313	-1264.823608398438	167.2122955322266	1120.078125	-1270.612670898438	162.6017303466797	1120.624145507813	-1335.437255859375	248.1344299316407	1145.093017578125	-1273.459350585938	-315.0042724609376	1122.2177734375	-912.1016235351565	-176.896224975586	1080.375854492188	-825.9252929687502	-149.2316436767578	1110.6025390625	-852.397399902344	-106.4798126220703	1075.79736328125	-826.106140136719	-40.35029983520509	1081.5361328125	-834.083435058594	-36.60491943359376	1031.107055664063	-891.0969848632815	200.1906127929688	1106.674926757813	-890.273376464844	193.4356384277344	1103.9658203125	-824.7636718750002	275.3123474121094	1126.969848632813	-881.2198486328127	-388.0787963867189	696.3441772460939	-1136.031127929688	-381.0927734375001	692.4306640625001	-922.1496582031252	-545.1441040039064	761.3812866210939	-1025.110229492188	-555.2514038085939	734.0626831054689	-1055.956420898438	-555.2200927734376	728.4501342773439	-999.154724121094	-378.8953247070313	574.4255981445314	-1211.502075195313	-297.3057556152344	552.9818115234376	-1207.618774414063	-268.9738159179688	588.6953125000001	-1186.53125	-272.6854553222657	497.0963134765626	-1198.649169921875	-157.3810577392578	398.4292602539064	-1162.12158203125	-147.3615875244141	417.6094970703126	-1045.656127929688	-184.0946197509766	283.2437438964844	-1057.976806640625	-227.3330688476563	227.5329742431641	-1114.542602539063	-203.7821197509766	228.2358703613282	-1072.667724609375	-264.2679443359376	186.4773406982422	-1032.516357421875	-375.8920898437501	105.4272613525391	-1075.827880859375	-348.1415710449219	121.7262115478516	-994.068298339844	-440.8518981933595	96.35222625732425	-1025.56396484375	-239.4664154052735	51.34126663208009	-1004.261962890625	-233.6187591552735	48.30857467651369	-1043.016479492188	-258.1560363769532	42.58846664428712	-1092.747436523438	-311.8732604980469	500.2477111816407	-852.8538818359377	-245.1297760009766	499.9983825683595	-858.302917480469	-229.1653747558594	528.1822509765626	-870.567321777344	-196.9800872802735	432.7171325683595	-873.226745605469	-150.7896575927735	397.8227539062501	-877.2388916015627	-131.9994049072266	407.8036499023439	-992.975524902344	-18.64621543884278	345.1782226562501	-893.7548828125002	-0.09623868763446811	242.3775329589844	-861.0971679687502	30.39403724670411	275.7278747558594	-874.6975708007815	74.03710174560548	255.6453399658204	-907.2120361328127	148.8209533691407	119.6726684570313	-866.4834594726565	147.3456726074219	142.4623565673828	-947.0088500976565	138.435775756836	55.64039993286134	-905.1829833984377	269.7358398437501	208.0493316650391	-940.2014160156252	267.7852478027344	223.4261016845704	-897.1899414062502	267.1397705078126	195.4050750732422	-841.9073486328127	
998	4.985	-224.2306060791016	1347.021728515625	-1039.882690429688	-357.3578186035157	1274.308227539063	-1143.568969726563	-350.8581848144532	1278.226806640625	-991.8394775390627	-405.1788330078126	1167.208129882813	-1057.400634765625	-511.1483154296876	876.0186767578127	-1031.4931640625	-287.3933410644532	1077.6748046875	-1064.3681640625	-340.2388305664063	1117.686279296875	-1218.480590820313	-195.4011840820313	1085.512939453125	-1291.866577148438	-165.429183959961	1105.493286132813	-1258.387084960938	-129.1511993408203	1086.46923828125	-1303.548217773438	-77.74798583984376	1073.389770507813	-1314.986572265625	-64.90147399902345	1013.806823730469	-1264.973999023438	167.0673370361328	1120.874389648438	-1270.589477539063	162.3992309570313	1121.411254882813	-1335.429809570313	247.7596282958985	1145.949096679688	-1273.634521484375	-315.0700073242188	1122.681030273438	-911.9066162109377	-176.8872375488282	1080.69970703125	-825.7796630859377	-149.1646270751953	1111.105346679688	-852.1931152343752	-106.5274124145508	1076.252319335938	-825.5532836914065	-40.32623291015626	1081.910766601563	-833.9509887695315	-36.59453201293946	1031.538208007813	-890.8956298828127	200.4832458496094	1107.043823242188	-890.1983032226565	193.4366455078126	1104.336303710938	-824.6045532226565	275.1430664062501	1127.409423828125	-880.8836669921877	-387.7325439453126	696.7976684570314	-1136.141479492188	-380.9969787597657	692.9224243164064	-922.091003417969	-544.9432373046876	761.8898925781251	-1025.238403320313	-555.0335083007814	734.4673461914064	-1055.962646484375	-554.9521484375001	729.0580444335939	-999.2075805664065	-378.7917480468751	574.9360961914064	-1211.591918945313	-297.0620117187501	553.2257690429689	-1207.471069335938	-268.7683715820313	588.8609619140626	-1186.450073242188	-272.5293884277344	497.3971557617189	-1198.416870117188	-157.3831329345703	398.5570678710939	-1162.047973632813	-147.4849700927735	417.5997009277345	-1045.527221679688	-184.1007080078125	283.2403259277344	-1057.8603515625	-227.3048400878907	227.4924621582032	-1114.519409179688	-203.8274841308594	228.3131408691407	-1072.513427734375	-264.2789306640626	186.4694213867188	-1032.45654296875	-375.8751831054688	105.456283569336	-1075.78759765625	-348.1385498046876	121.6863098144532	-994.0149536132815	-440.8970336914064	96.37593078613284	-1025.595947265625	-239.4677276611329	51.31365966796876	-1004.193481445313	-233.6625061035157	48.36646270751955	-1043.01904296875	-258.1722412109376	42.58684539794923	-1092.750854492188	-311.7819213867188	500.7333374023439	-852.8870849609377	-245.1070251464844	500.4368286132814	-858.4668579101565	-229.0574493408204	528.7733154296876	-870.5007934570315	-196.8307647705079	433.3480529785157	-873.275085449219	-150.6530151367188	398.3990478515626	-877.332458496094	-131.9550476074219	408.523895263672	-993.0098876953127	-18.45725822448731	345.8244018554688	-893.881042480469	0.1815399527549744	243.0003509521485	-861.346618652344	30.64850807189942	276.5460510253907	-874.9039306640627	74.27684783935548	256.5102539062501	-907.452087402344	149.292236328125	120.4859008789063	-866.8636474609377	147.7261505126953	143.3421783447266	-947.3959960937502	139.093002319336	56.67622756958009	-905.520202636719	270.0615234375001	209.1010131835938	-940.240661621094	268.2149047851563	224.3181457519532	-897.2236938476565	267.5064697265626	196.4035949707032	-842.254821777344	
999	4.99	-224.3645324707032	1347.924560546875	-1039.535400390625	-357.4118041992188	1274.897216796875	-1143.196533203125	-350.9713745117188	1278.872192382813	-991.595642089844	-405.156707763672	1167.935913085938	-1057.193115234375	-510.9826049804689	876.6053466796877	-1031.591918945313	-287.3558044433594	1078.23388671875	-1064.156127929688	-339.3488464355469	1118.08984375	-1217.9609375	-195.4784545898438	1086.148315429688	-1291.832641601563	-165.5631713867188	1106.1611328125	-1258.392700195313	-129.2248687744141	1087.3310546875	-1304.324951171875	-77.99303436279298	1073.94970703125	-1315.253295898438	-65.26971435546876	1014.442932128906	-1265.157104492188	166.9991149902344	1121.376953125	-1270.79248046875	162.4794006347657	1122.12939453125	-1335.56103515625	247.8247985839844	1146.329467773438	-1273.771240234375	-315.1105346679688	1123.265502929688	-911.7222900390627	-176.960433959961	1081.024536132813	-825.636657714844	-149.1808013916016	1111.436889648438	-852.031433105469	-106.545524597168	1076.444458007813	-825.7752075195315	-40.38437652587891	1082.298950195313	-833.6890869140627	-36.6102638244629	1031.920654296875	-890.676696777344	200.8608856201172	1106.887573242188	-889.983093261719	193.4723663330079	1104.747924804688	-824.3421630859377	275.1870422363282	1127.969116210938	-880.6343383789065	-387.5391540527345	697.3870849609376	-1136.06982421875	-380.8895568847657	693.4419555664064	-922.039489746094	-544.7258911132814	762.4230957031251	-1025.3154296875	-554.7765502929689	735.1239624023439	-1055.997192382813	-554.8888549804689	729.5277709960939	-999.2800292968752	-378.5651855468751	575.2082519531251	-1211.394897460938	-296.8528747558594	553.4928588867189	-1207.399536132813	-268.5784301757813	588.9960937500001	-1186.412841796875	-272.3806152343751	497.5970458984376	-1198.213989257813	-157.3775177001953	398.5704345703126	-1161.899658203125	-147.5270538330078	417.7088928222657	-1045.38525390625	-184.0872192382813	283.2875976562501	-1057.708740234375	-227.2548217773438	227.5456237792969	-1114.345336914063	-203.8221893310547	228.3444061279297	-1072.421997070313	-264.3327331542969	186.4880523681641	-1032.370849609375	-375.9566650390626	105.4816665649414	-1075.682006835938	-348.1693725585938	121.7184829711914	-993.9095458984377	-440.8671264648439	96.36090087890628	-1025.531860351563	-239.4703216552735	51.28413009643556	-1004.184204101563	-233.6287231445313	48.37203598022462	-1042.959716796875	-258.2197265625001	42.57992935180665	-1092.7412109375	-311.6367492675782	501.3217773437501	-852.927673339844	-245.003158569336	500.9736633300782	-858.4915771484377	-228.8793945312501	529.4514770507814	-870.4906005859377	-196.750473022461	433.9391174316407	-873.252380371094	-150.528549194336	398.9371643066407	-877.4085083007815	-131.9275207519532	409.2163696289064	-993.0713500976565	-18.21183013916016	346.6679382324219	-893.993347167969	0.4797160923480989	243.7410278320313	-861.6231079101565	30.95443916320801	277.3162231445313	-875.025817871094	74.43323516845705	257.3918762207032	-907.6604003906252	149.8242492675782	121.2600708007813	-867.3050537109377	147.6272125244141	144.5438537597657	-948.0242919921877	139.4720611572266	57.67104721069337	-905.791931152344	270.6691284179688	210.4475402832032	-940.6246337890627	268.5498657226563	225.3722534179688	-897.2769165039065	267.9133300781251	197.2126464843751	-842.4094848632815	
1000	4.995	-224.5458374023438	1348.621704101563	-1039.385986328125	-357.4469604492188	1275.650512695313	-1143.39306640625	-351.0827331542969	1279.56640625	-991.321228027344	-405.1461181640626	1168.581420898438	-1056.97900390625	-510.781463623047	877.175720214844	-1031.648071289063	-287.3472290039063	1078.893798828125	-1063.9375	-339.8619384765626	1118.906860351563	-1217.970581054688	-195.7194061279297	1086.673828125	-1291.884887695313	-165.6315155029297	1106.742553710938	-1258.450073242188	-129.4347229003907	1087.520385742188	-1303.7080078125	-78.17233276367189	1074.432373046875	-1315.343994140625	-65.47206878662111	1014.99462890625	-1265.30419921875	166.808578491211	1121.731689453125	-1271.11572265625	162.7642364501953	1122.909423828125	-1335.7587890625	247.6446380615235	1146.945922851563	-1273.607543945313	-315.1174926757813	1123.857421875	-911.5000610351565	-176.9519195556641	1081.3515625	-825.455261230469	-149.2244415283203	1111.795776367188	-851.7651977539065	-106.6821899414063	1076.72412109375	-825.6333618164065	-40.41489028930665	1082.683227539063	-833.4666137695315	-36.6649398803711	1032.248046875	-890.4678955078127	201.6064453125001	1106.733520507813	-890.4417724609377	193.4791717529297	1105.040283203125	-824.192077636719	275.0359191894532	1128.341918945313	-880.1704101562502	-386.8988342285157	697.6951293945314	-1136.903076171875	-380.4716796875001	694.1322631835939	-921.9841308593752	-544.4459228515626	763.1674194335939	-1025.272705078125	-554.4746704101564	735.6817626953126	-1056.042602539063	-554.7350463867189	730.0516967773439	-999.3184204101565	-378.5408935546876	575.6690063476564	-1211.471435546875	-296.7433166503907	553.7076416015626	-1207.338500976563	-268.3187561035157	589.2149658203126	-1186.374145507813	-272.2382507324219	497.8836669921876	-1198.1591796875	-157.3395233154297	398.6019592285157	-1161.76123046875	-147.5373229980469	417.7415161132814	-1045.289428710938	-184.9852294921875	282.5698547363282	-1057.829956054688	-227.259750366211	227.5914916992188	-1114.162963867188	-203.8670806884766	228.3610534667969	-1072.267456054688	-264.3375244140626	186.5399932861328	-1032.16064453125	-375.9227905273438	105.478256225586	-1075.558349609375	-348.2465515136719	121.654281616211	-993.8662109375002	-440.8738708496095	96.33757781982425	-1025.5087890625	-239.4548339843751	51.27904129028322	-1004.125183105469	-233.6083068847657	48.39207839965822	-1042.913208007813	-258.2117614746094	42.65677642822266	-1092.684326171875	-311.5448913574219	501.8179321289064	-852.9230957031252	-244.9435729980469	501.3649902343751	-858.557312011719	-228.7661437988282	530.0465087890626	-870.5068969726565	-196.698715209961	434.373504638672	-873.4397583007815	-150.4448699951172	399.5348205566407	-877.5281372070315	-131.9176025390625	409.7725219726564	-993.1265869140627	-18.0614013671875	347.6068725585938	-893.9650878906252	0.8475626111030581	244.6332397460938	-861.8292236328127	31.15695381164551	278.0241699218751	-875.2346191406252	74.87339782714845	258.2161560058594	-907.6890258789065	150.3727416992188	122.2342681884766	-867.5933227539065	148.4111480712891	145.6792755126953	-948.0963134765627	140.000732421875	58.65901947021486	-906.2552490234377	270.9906005859376	211.3436431884766	-940.586853027344	268.6739196777344	226.7463836669922	-897.7258911132815	268.3650512695313	198.4609985351563	-842.6186523437502	
